<svg width="154" height="158" viewBox="0 0 154 158" fill="none" xmlns="http://www.w3.org/2000/svg">
<g filter="url(#filter0_d_1_495)">
<path d="M91.6071 21.0228L150 65.1516L56.3839 150L0 92.9925L91.6071 21.0228Z" fill="#80FF85"/>
</g>
<mask id="mask0_1_495" style="mask-type:luminance" maskUnits="userSpaceOnUse" x="93" y="49" width="20" height="12">
<path d="M93.0801 49.7956H112.261V60.9234H93.0801V49.7956Z" fill="white"/>
</mask>
<g mask="url(#mask0_1_495)">
<g opacity="0.5">
<path d="M112.261 55.3596C112.261 58.4324 107.967 60.9238 102.67 60.9238C97.3737 60.9238 93.0801 58.4324 93.0801 55.3596C93.0801 52.2869 97.3737 49.7955 102.67 49.7955C107.967 49.7955 112.261 52.2869 112.261 55.3596Z" fill="#647DDD"/>
</g>
</g>
<path d="M107.873 33.3881L99.0197 37.5931V53.3482C99.0197 56.5371 102.021 59.1224 105.723 59.1224C109.425 59.1224 112.426 56.5371 112.426 53.3482V37.5931L107.873 33.3881Z" fill="#FFF9FF"/>
<path d="M112.426 37.5931C112.426 40.7824 109.425 43.3678 105.723 43.3678C102.021 43.3678 99.0197 40.7824 99.0197 37.5931C99.0197 34.4042 102.021 31.8183 105.723 31.8183C109.425 31.8183 112.426 34.4042 112.426 37.5931Z" fill="#FFF9FF"/>
<path d="M100.017 40.6223C101.198 42.2693 103.312 43.3678 105.724 43.3678C108.136 43.3678 110.249 42.2693 111.43 40.6223C111.512 40.2875 111.555 39.941 111.555 39.5855C111.555 36.8107 108.944 34.5617 105.724 34.5617C102.503 34.5617 99.8916 36.8107 99.8916 39.5855C99.8916 39.941 99.9352 40.2875 100.017 40.6223Z" fill="#A04A58"/>
<path d="M105.723 31.8183C102.021 31.8183 99.0197 34.4037 99.0197 37.5931C99.0197 40.7824 102.021 43.3678 105.723 43.3678C109.425 43.3678 112.426 40.7824 112.426 37.5931C112.426 34.4037 109.425 31.8183 105.723 31.8183ZM105.723 32.4824C109.102 32.4824 111.957 34.8228 111.957 37.5931C111.957 40.3633 109.102 42.7037 105.723 42.7037C102.344 42.7037 99.4897 40.3633 99.4897 37.5931C99.4897 34.8228 102.344 32.4824 105.723 32.4824Z" fill="#BCBACE"/>
<path d="M111.441 43.9597L111.196 43.7597V43.7658L111.193 43.7627V43.7693L111.189 43.7658V43.7718L111.185 43.7688V43.7749L111.181 43.7718V43.7784L111.177 43.7749V43.7809L111.173 43.7779V43.7845L111.169 43.7809V43.7875L111.166 43.784V43.7905L111.162 43.787V43.7936L111.158 43.7905V43.7966L111.154 43.7931V43.7996L111.15 43.7966V43.8026L111.147 43.7996V43.8057L111.143 43.8021V43.8087L111.139 43.8057V43.8117L111.135 43.8087V43.8148L111.131 43.8117V43.8178L111.127 43.8148V43.8208L111.123 43.8178V43.8239L111.119 43.8208V43.8269L111.115 43.8239V43.8299L111.112 43.8269V43.8335L111.108 43.8299V43.836L111.104 43.8329V43.839L111.1 43.836V43.8425L111.096 43.839V43.8451L111.092 43.842V43.8481L111.089 43.8451V43.8516L111.085 43.8481V43.8547L111.081 43.8511V43.8572L111.077 43.8547V43.8607L111.073 43.8572V43.8638L111.069 43.8607V43.8668L111.065 43.8638V43.8698L111.062 43.8663V43.8728L111.058 43.8698V43.8759L111.054 43.8728V43.8789L111.05 43.8754V43.8819L111.047 43.8789V43.885L111.043 43.8819V43.888L111.039 43.885V43.891L111.035 43.888V43.8941L111.031 43.891V43.8971L111.027 43.8941V43.9001L111.023 43.8971V43.9032L111.019 43.9001V43.9067L111.015 43.9032V43.9092L111.012 43.9062V43.9122L111.008 43.9092V43.9158L111.004 43.9122V43.9183L111 43.9153V43.9218L110.996 43.9183V43.9249L110.992 43.9213V43.9279L110.988 43.9249V43.9309L110.985 43.9279V43.934L110.981 43.9304V43.937L110.977 43.934V43.94L110.973 43.937V43.9431L110.969 43.9395V43.9461L110.965 43.9431V43.9491L110.962 43.9461V43.9521L110.958 43.9491V43.9552L110.954 43.9521V43.9582L110.95 43.9552V43.9612L110.946 43.9582V43.9643L110.943 43.9612V43.9673L110.939 43.9643V43.9703L110.934 43.9673V43.9734L110.93 43.9703V43.9764L110.927 43.9734V43.9799L110.923 43.9764V43.9824L110.919 43.9794V43.9855L110.915 43.9824V43.989L110.912 43.9855V43.9915L110.908 43.9885V43.9951L110.904 43.9915V43.9981L110.9 43.9946V44.0011L110.896 43.9981V44.0042L110.892 44.0011V44.0072L110.888 44.0037V44.0102L110.884 44.0072V44.0133L110.881 44.0102V44.0163L110.877 44.0127V44.0193L110.873 44.0163V44.0223L110.869 44.0193V44.0254L110.865 44.0223V44.0284L110.862 44.0254V44.0314L110.858 44.0284V44.0345L110.854 44.0314V44.0375L110.85 44.0345V44.0405L110.846 44.0375V44.0441L110.842 44.0405V44.0466L110.839 44.0436V44.0496L110.834 44.0466V44.0532L110.83 44.0496V44.0557L110.827 44.0532V44.0592L110.823 44.0557V44.0622L110.819 44.0587V44.0648L110.815 44.0622V44.0683L110.811 44.0648V44.0713L110.808 44.0678V44.0744L110.804 44.0713V44.0774L110.8 44.0744V44.0804L110.796 44.0774V44.0835L110.792 44.0804V44.0865L110.788 44.0835V44.0895L110.784 44.0865V44.0925L110.78 44.0895V44.0956L110.777 44.0925V44.0986L110.773 44.0956V44.1016L110.769 44.0986V44.1047L110.765 44.1016V44.1077L110.762 44.1047V44.1107L110.758 44.1077V44.1138L110.754 44.1107V44.1173L110.75 44.1138V44.1198L110.746 44.1168V44.1234L110.742 44.1198V44.1264L110.738 44.1228V44.1289L110.734 44.1259V44.1324L110.73 44.1289V44.1355L110.727 44.1319V44.1385L110.723 44.1355V44.1415L110.719 44.1385V44.1446L110.715 44.141V44.1476L110.711 44.1446V44.1506L110.707 44.1476V44.1537L110.704 44.1506V44.1567L110.7 44.1537V44.1597L110.696 44.1567V44.1627L110.692 44.1597V44.1658L110.688 44.1627V44.1688L110.684 44.1658V44.1718L110.68 44.1688V44.1749L110.677 44.1718V44.1779L110.673 44.1749V44.1809L110.669 44.1779V44.184L110.665 44.1809V44.187L110.661 44.184V44.1905L110.658 44.187V44.1931L110.654 44.1905V44.1966L110.65 44.1931V44.1996L110.646 44.1961V44.2021L110.642 44.1996V44.2057L110.638 44.2021V44.2087L110.634 44.2052V44.2117L110.63 44.2087V44.2148L110.627 44.2117V44.2178L110.623 44.2148V44.2208L110.619 44.2178V44.2239L110.615 44.2208V44.2269L110.611 44.2239V44.2299L110.607 44.2269V44.2329L110.603 44.2299V44.236L110.6 44.2329V44.239L110.596 44.236V44.242L110.592 44.239V44.2451L110.588 44.242V44.2481L110.584 44.2451V44.2516L110.58 44.2481V44.2542L110.577 44.2511V44.2572L110.573 44.2542V44.2607L110.569 44.2572V44.2638L110.565 44.2602V44.2663L110.561 44.2638V44.2698L110.557 44.2663V44.2728L110.554 44.2693V44.2754L110.55 44.2728V44.2789L110.546 44.2754V44.2819L110.542 44.2789V44.285L110.538 44.2819V44.288L110.534 44.285V44.291L110.53 44.288V44.2941L110.526 44.291V44.2971L110.523 44.2941V44.3001L110.519 44.2971V44.3032L110.515 44.3001V44.3062L110.511 44.3032V44.3092L110.507 44.3062V44.3122L110.503 44.3092V44.3153L110.499 44.3122V44.3183L110.496 44.3153V44.3213L110.492 44.3183V44.3244L110.488 44.3213V44.3279L110.484 44.3244V44.3304L110.48 44.3279V44.334L110.477 44.3304V44.337L110.473 44.3335V44.3395L110.469 44.337V44.3431L110.465 44.3395V44.3461L110.461 44.3425V44.3491L110.457 44.3461V44.3521L110.453 44.3491V44.3552L110.45 44.3521V44.3582L110.446 44.3552V44.3612L110.442 44.3582V44.3643L110.438 44.3612V44.3673L110.434 44.3643V44.3703L110.43 44.3673V44.3734L110.426 44.3703V44.3764L110.422 44.3734V44.3794L110.419 44.3764V44.3824L110.415 44.3794V44.3855L110.411 44.3824V44.389L110.407 44.3855V44.3915L110.403 44.3885V44.3946L110.399 44.3915V44.3981L110.395 44.3946V44.4011L110.392 44.3976V44.4037L110.388 44.4011V44.4072L110.384 44.4037V44.4102L110.38 44.4067V44.4127L110.377 44.4102V44.4163L110.373 44.4127V44.4193L110.369 44.4163V44.4223L110.365 44.4193V44.4254L110.361 44.4223V44.4284L110.357 44.4254V44.4314L110.353 44.4284V44.4345L110.349 44.4314V44.4375L110.345 44.4345V44.4405L110.342 44.4375V44.4436L110.338 44.4405V44.4466L110.334 44.4436V44.4496L110.33 44.4466V44.4526L110.326 44.4496V44.4557L110.322 44.4526V44.4587L110.318 44.4557V44.4622L110.315 44.4587V44.4648L110.311 44.4617V44.4678L110.307 44.4648V44.4713L110.303 44.4678V44.4744L110.299 44.4708V44.4774L110.295 44.4744V44.4804L110.292 44.4769V44.4835L110.288 44.4799V44.4865L110.284 44.4835V44.4895L110.28 44.486V44.4925L110.276 44.4895V44.4956L110.273 44.4925V44.4986L110.269 44.4956V44.5016L110.265 44.4986V44.5047L110.261 44.5016V44.5077L110.257 44.5047V44.5107L110.253 44.5077V44.5138L110.249 44.5107V44.5168L110.245 44.5138V44.5198L110.242 44.5168V44.5228L110.238 44.5198V44.5264L110.234 44.5228V44.5289L110.23 44.5259V44.5319L110.226 44.5289V44.5355L110.222 44.5319V44.5385L110.218 44.535V44.541L110.214 44.5385V44.5446L110.211 44.541V44.5476L110.207 44.5441V44.5506L110.203 44.5476V44.5537L110.199 44.5501V44.5567L110.195 44.5537V44.5597L110.192 44.5567V44.5627L110.188 44.5592V44.5658L110.184 44.5627V44.5688L110.18 44.5658V44.5718L110.176 44.5688V44.5749L110.172 44.5718V44.5779L110.169 44.5749V44.5809L110.165 44.5779V44.584L110.161 44.5809V44.587L110.157 44.584V44.5905L110.153 44.587V44.5931L110.149 44.59V44.5961L110.145 44.5931V44.5996L110.141 44.5961V44.6021L110.138 44.5991V44.6052L110.134 44.6021V44.6087L110.13 44.6052V44.6117L110.126 44.6082V44.6148L110.122 44.6117V44.6178L110.118 44.6143V44.6208L110.114 44.6178V44.6239L110.11 44.6208V44.6269L110.107 44.6234V44.6299L110.103 44.6269V44.6329L110.099 44.6299V44.636L110.095 44.6329V44.639L110.092 44.636V44.642L110.088 44.639V44.6451L110.084 44.642V44.6481L110.08 44.6451V44.6511L110.076 44.6481V44.6542L110.072 44.6511V44.6572L110.068 44.6542V44.6602L110.065 44.6572V44.6638L110.061 44.6602V44.6663L110.057 44.6633V44.6693L110.053 44.6663V44.6728L110.049 44.6693V44.6754L110.045 44.6723V44.6784L110.041 44.6754V44.6819L110.037 44.6784V46.2814C111.174 47.3638 111.869 49.192 111.869 51.1451C111.869 51.7648 111.719 52.341 111.452 52.7966C111.367 52.8138 111.282 52.8228 111.196 52.8228V52.8259C111.195 52.8259 111.194 52.8264 111.193 52.8264V52.8294H111.189V52.8319C111.187 52.8319 111.186 52.8324 111.185 52.8324V52.835C111.183 52.835 111.182 52.8355 111.181 52.8355V52.8385H111.177V52.841C111.176 52.841 111.175 52.8415 111.173 52.8415V52.8446H111.169V52.8476C111.168 52.8476 111.167 52.8476 111.166 52.8476V52.8506C111.164 52.8506 111.163 52.8506 111.162 52.8506V52.8537H111.158V52.8567C111.157 52.8567 111.155 52.8567 111.154 52.8567V52.8597C111.153 52.8597 111.151 52.8597 111.15 52.8597V52.8627C111.149 52.8627 111.148 52.8627 111.147 52.8627V52.8658C111.145 52.8658 111.144 52.8658 111.143 52.8658V52.8688H111.139V52.8718C111.137 52.8718 111.136 52.8718 111.135 52.8718V52.8749C111.134 52.8749 111.132 52.8749 111.131 52.8749V52.8779H111.127V52.8809C111.126 52.8809 111.124 52.8814 111.123 52.8814V52.884C111.122 52.884 111.121 52.884 111.119 52.884V52.887C111.118 52.887 111.117 52.8875 111.115 52.8875V52.89C111.114 52.89 111.113 52.8905 111.112 52.8905V52.8931C111.11 52.8931 111.109 52.8931 111.108 52.8931V52.8961C111.107 52.8961 111.105 52.8966 111.104 52.8966V52.8991C111.103 52.8991 111.102 52.8996 111.1 52.8996V52.9026H111.096V52.9052C111.095 52.9052 111.094 52.9057 111.092 52.9057V52.9082C111.091 52.9082 111.09 52.9087 111.089 52.9087V52.9117C111.087 52.9117 111.086 52.9117 111.085 52.9117V52.9143C111.083 52.9143 111.082 52.9148 111.081 52.9148V52.9178H111.077V52.9208C111.076 52.9208 111.075 52.9208 111.073 52.9208V52.9239C111.072 52.9239 111.071 52.9239 111.069 52.9239V52.9269H111.065V52.9299C111.064 52.9299 111.063 52.9299 111.062 52.9299V52.9329C111.06 52.9329 111.059 52.9329 111.058 52.9329V52.936C111.057 52.936 111.055 52.936 111.054 52.936V52.939C111.053 52.939 111.051 52.939 111.05 52.939V52.942H111.047V52.9451C111.045 52.9451 111.044 52.9456 111.043 52.9456V52.9481C111.041 52.9481 111.04 52.9481 111.039 52.9481V52.9511H111.035V52.9542C111.033 52.9542 111.032 52.9547 111.031 52.9547V52.9572H111.027V52.9602C111.026 52.9602 111.024 52.9607 111.023 52.9607V52.9633C111.022 52.9633 111.02 52.9638 111.019 52.9638V52.9663H111.015V52.9693C111.014 52.9693 111.013 52.9698 111.012 52.9698V52.9723C111.01 52.9723 111.009 52.9728 111.008 52.9728V52.9759C111.007 52.9759 111.005 52.9759 111.004 52.9759V52.9784C111.002 52.9784 111.002 52.9789 111 52.9789V52.9819H110.996V52.985C110.995 52.985 110.994 52.985 110.992 52.985V52.9875C110.991 52.9875 110.99 52.988 110.988 52.988V52.991H110.985V52.9941C110.983 52.9941 110.982 52.9941 110.981 52.9941V52.9971C110.979 52.9971 110.978 52.9971 110.977 52.9971V53.0001C110.975 53.0001 110.974 53.0001 110.973 53.0001V53.0032C110.972 53.0032 110.971 53.0032 110.969 53.0032V53.0062H110.965V53.0092C110.964 53.0092 110.963 53.0092 110.962 53.0092V53.0122C110.96 53.0122 110.959 53.0122 110.958 53.0122V53.0153H110.954V53.0183C110.953 53.0183 110.951 53.0188 110.95 53.0188V53.0213C110.949 53.0213 110.947 53.0213 110.946 53.0213V53.0244C110.945 53.0244 110.943 53.0249 110.943 53.0249V53.0274C110.941 53.0274 110.94 53.0279 110.939 53.0279V53.0304H110.934V53.0335C110.933 53.0335 110.932 53.034 110.93 53.034V53.0365C110.929 53.0365 110.928 53.037 110.927 53.037V53.04H110.923V53.0425C110.922 53.0425 110.92 53.0431 110.919 53.0431V53.0461H110.915V53.0491C110.914 53.0491 110.913 53.0491 110.912 53.0491V53.0516C110.91 53.0516 110.909 53.0521 110.908 53.0521V53.0552H110.904V53.0582C110.903 53.0582 110.901 53.0582 110.9 53.0582V53.0612C110.898 53.0612 110.898 53.0612 110.896 53.0612V53.0643H110.892V53.0673C110.891 53.0673 110.89 53.0673 110.888 53.0673V53.0703H110.884V53.0734C110.883 53.0734 110.882 53.0734 110.881 53.0734V53.0764C110.879 53.0764 110.878 53.0764 110.877 53.0764V53.0794H110.873V53.0824C110.872 53.0824 110.87 53.0824 110.869 53.0824V53.0855C110.868 53.0855 110.867 53.0855 110.865 53.0855V53.0885C110.864 53.0885 110.863 53.089 110.862 53.089V53.0915C110.86 53.0915 110.859 53.092 110.858 53.092V53.0946H110.854V53.0976C110.853 53.0976 110.851 53.0981 110.85 53.0981V53.1006C110.849 53.1006 110.847 53.1011 110.846 53.1011V53.1037H110.842V53.1067C110.841 53.1067 110.839 53.1072 110.839 53.1072V53.1097C110.837 53.1097 110.836 53.1102 110.834 53.1102V53.1133C110.833 53.1133 110.832 53.1133 110.83 53.1133V53.1158C110.829 53.1158 110.828 53.1163 110.827 53.1163V53.1193H110.823V53.1223C110.822 53.1223 110.82 53.1223 110.819 53.1223V53.1249C110.818 53.1249 110.817 53.1254 110.815 53.1254V53.1284H110.811V53.1314C110.81 53.1314 110.809 53.1314 110.808 53.1314V53.1345C110.807 53.1345 110.805 53.1345 110.804 53.1345V53.1375C110.802 53.1375 110.801 53.1375 110.8 53.1375V53.1405C110.798 53.1405 110.797 53.1405 110.796 53.1405V53.1436H110.792V53.1466C110.791 53.1466 110.79 53.1466 110.788 53.1466V53.1496C110.787 53.1496 110.786 53.1496 110.784 53.1496V53.1526H110.78V53.1557C110.779 53.1557 110.778 53.1557 110.777 53.1557V53.1587H110.773V53.1617C110.772 53.1617 110.77 53.1622 110.769 53.1622V53.1648C110.768 53.1648 110.766 53.1653 110.765 53.1653V53.1678H110.762V53.1708C110.76 53.1708 110.759 53.1713 110.758 53.1713V53.1739C110.756 53.1739 110.755 53.1744 110.754 53.1744V53.1769H110.75V53.1799C110.749 53.1799 110.747 53.1804 110.746 53.1804V53.1835H110.742V53.1865C110.741 53.1865 110.739 53.1865 110.738 53.1865V53.189C110.737 53.189 110.735 53.1895 110.734 53.1895V53.1925H110.73V53.1956C110.729 53.1956 110.728 53.1956 110.727 53.1956V53.1981C110.725 53.1981 110.724 53.1986 110.723 53.1986V53.2016C110.722 53.2016 110.72 53.2016 110.719 53.2016V53.2047C110.718 53.2047 110.717 53.2047 110.715 53.2047V53.2077H110.711V53.2107C110.71 53.2107 110.709 53.2107 110.707 53.2107V53.2138C110.706 53.2138 110.705 53.2138 110.704 53.2138V53.2168C110.702 53.2168 110.701 53.2173 110.7 53.2173V53.2198C110.698 53.2198 110.697 53.2198 110.696 53.2198V53.2228C110.694 53.2228 110.693 53.2228 110.692 53.2228V53.2259C110.69 53.2259 110.69 53.2264 110.688 53.2264V53.2289C110.687 53.2289 110.686 53.2294 110.684 53.2294V53.2319H110.68V53.235C110.679 53.235 110.678 53.2355 110.677 53.2355V53.238C110.675 53.238 110.674 53.2385 110.673 53.2385V53.241C110.672 53.241 110.67 53.2415 110.669 53.2415V53.2441C110.668 53.2441 110.666 53.2446 110.665 53.2446V53.2471C110.664 53.2471 110.662 53.2476 110.661 53.2476V53.2506C110.66 53.2506 110.659 53.2506 110.658 53.2506V53.2532C110.656 53.2532 110.655 53.2537 110.654 53.2537V53.2567H110.65V53.2597C110.648 53.2597 110.647 53.2597 110.646 53.2597V53.2622C110.645 53.2622 110.643 53.2627 110.642 53.2627V53.2658H110.638V53.2688C110.637 53.2688 110.635 53.2688 110.634 53.2688V53.2718H110.63V53.2749C110.629 53.2749 110.628 53.2749 110.627 53.2749V53.2779C110.625 53.2779 110.624 53.2779 110.623 53.2779V53.2809H110.619V53.284C110.618 53.284 110.616 53.284 110.615 53.284V53.287C110.614 53.287 110.613 53.287 110.611 53.287V53.29H110.607V53.2931C110.606 53.2931 110.605 53.2931 110.603 53.2931V53.2961H110.6V53.2991C110.598 53.2991 110.597 53.2996 110.596 53.2996V53.3021C110.594 53.3021 110.593 53.3026 110.592 53.3026V53.3052H110.588V53.3082C110.587 53.3082 110.585 53.3087 110.584 53.3087V53.3112C110.583 53.3117 110.582 53.3117 110.58 53.3117V53.3143C110.579 53.3143 110.578 53.3148 110.577 53.3148V53.3173C110.575 53.3173 110.574 53.3178 110.573 53.3178V53.3208H110.569V53.3239C110.568 53.3239 110.566 53.3239 110.565 53.3239V53.3264C110.564 53.3264 110.562 53.3269 110.561 53.3269V53.3299C110.56 53.3299 110.558 53.3299 110.557 53.3299V53.3329C110.556 53.3329 110.555 53.3329 110.554 53.3329V53.3355C110.552 53.336 110.551 53.336 110.55 53.336V53.339C110.548 53.339 110.547 53.339 110.546 53.339V53.342C110.544 53.342 110.543 53.342 110.542 53.342V53.3451H110.538V53.3481C110.537 53.3481 110.535 53.3481 110.534 53.3481V53.3511C110.533 53.3511 110.532 53.3511 110.53 53.3511V53.3542C110.529 53.3542 110.528 53.3547 110.526 53.3547V53.3572C110.525 53.3572 110.524 53.3572 110.523 53.3572V53.3602C110.522 53.3602 110.52 53.3602 110.519 53.3602V53.3633C110.518 53.3633 110.516 53.3638 110.515 53.3638V53.3663C110.514 53.3663 110.512 53.3663 110.511 53.3663V53.3693H110.507V53.3723C110.506 53.3723 110.505 53.3728 110.503 53.3728V53.3754C110.502 53.3754 110.501 53.3759 110.499 53.3759V53.3784C110.498 53.3784 110.497 53.3789 110.496 53.3789V53.3814C110.494 53.3814 110.493 53.3819 110.492 53.3819V53.385H110.488V53.3875C110.487 53.3875 110.485 53.388 110.484 53.388V53.3905C110.483 53.3905 110.482 53.391 110.48 53.391V53.3941H110.477V53.3971C110.475 53.3971 110.474 53.3971 110.473 53.3971V53.4001H110.469V53.4032H110.465V53.4062C110.464 53.4062 110.462 53.4062 110.461 53.4062V53.4092H110.457V53.4122C110.456 53.4122 110.454 53.4122 110.453 53.4122V53.4153C110.452 53.4153 110.451 53.4153 110.45 53.4153V53.4183H110.446V53.4213C110.444 53.4213 110.443 53.4213 110.442 53.4213V53.4244C110.44 53.4244 110.439 53.4244 110.438 53.4244V53.4274C110.437 53.4274 110.435 53.4279 110.434 53.4279V53.4304C110.433 53.4304 110.432 53.4304 110.43 53.4304V53.4335H110.426V53.4365C110.425 53.4365 110.424 53.437 110.422 53.437V53.4395C110.422 53.4395 110.42 53.44 110.419 53.44V53.4425C110.418 53.4425 110.416 53.4431 110.415 53.4431V53.4456C110.413 53.4456 110.412 53.4461 110.411 53.4461V53.4491H110.407V53.4516C110.406 53.4516 110.405 53.4521 110.403 53.4521V53.4547C110.402 53.4547 110.401 53.4552 110.399 53.4552V53.4582H110.395V53.4607C110.394 53.4607 110.393 53.4612 110.392 53.4612V53.4638C110.39 53.4638 110.389 53.4643 110.388 53.4643V53.4673C110.387 53.4673 110.385 53.4673 110.384 53.4673V53.4703C110.383 53.4703 110.382 53.4703 110.38 53.4703V53.4728C110.379 53.4734 110.378 53.4734 110.377 53.4734V53.4764C110.375 53.4764 110.374 53.4764 110.373 53.4764V53.4794C110.371 53.4794 110.37 53.4794 110.369 53.4794V53.4824H110.365V53.4855C110.363 53.4855 110.362 53.4855 110.361 53.4855V53.4885C110.36 53.4885 110.358 53.4885 110.357 53.4885V53.4915C110.356 53.4915 110.354 53.492 110.353 53.492V53.4946C110.352 53.4946 110.35 53.4946 110.349 53.4946V53.4976H110.345V53.5006C110.344 53.5006 110.343 53.5011 110.342 53.5011V53.5037C110.34 53.5037 110.339 53.5037 110.338 53.5037V53.5067H110.334V53.5097C110.333 53.5097 110.332 53.5102 110.33 53.5102V53.5133H110.326V53.5158C110.325 53.5158 110.324 53.5163 110.322 53.5163V53.5188C110.321 53.5188 110.32 53.5193 110.318 53.5193V53.5223H110.315V53.5249C110.314 53.5249 110.312 53.5254 110.311 53.5254V53.5279C110.309 53.5279 110.308 53.5284 110.307 53.5284V53.5314H110.303V53.5345C110.302 53.5345 110.301 53.5345 110.299 53.5345V53.5375H110.295V53.5405C110.294 53.5405 110.293 53.5405 110.292 53.5405V53.5436C110.29 53.5436 110.289 53.5436 110.288 53.5436V53.5466H110.284V53.5496C110.283 53.5496 110.281 53.5496 110.28 53.5496V53.5526C110.279 53.5526 110.277 53.5526 110.276 53.5526V53.5557C110.275 53.5557 110.273 53.5557 110.273 53.5557V53.5587C110.271 53.5587 110.27 53.5587 110.269 53.5587V53.5617H110.265V53.5648C110.263 53.5648 110.262 53.5653 110.261 53.5653V53.5678C110.259 53.5678 110.258 53.5678 110.257 53.5678V53.5708H110.253V53.5739C110.252 53.5739 110.25 53.5744 110.249 53.5744V53.5769C110.248 53.5769 110.247 53.5769 110.245 53.5769V53.5799C110.244 53.5799 110.243 53.5804 110.242 53.5804V53.5829C110.24 53.5829 110.239 53.5835 110.238 53.5835V53.5865H110.234V53.589C110.233 53.589 110.231 53.5895 110.23 53.5895V53.592C110.229 53.592 110.228 53.5925 110.226 53.5925V53.5956H110.222V53.5981C110.221 53.5981 110.22 53.5986 110.218 53.5986V53.6011C110.217 53.6011 110.216 53.6016 110.214 53.6016V53.6047C110.213 53.6047 110.212 53.6047 110.211 53.6047V53.6077C110.209 53.6077 110.208 53.6077 110.207 53.6077V53.6107H110.203V53.6138C110.202 53.6138 110.2 53.6138 110.199 53.6138V53.6168C110.198 53.6168 110.197 53.6168 110.195 53.6168V53.6198H110.192V53.6228C110.19 53.6228 110.189 53.6228 110.188 53.6228V53.6259H110.184V53.6289C110.183 53.6289 110.181 53.6294 110.18 53.6294V53.6319C110.179 53.6319 110.177 53.6319 110.176 53.6319V53.635H110.172V53.638C110.171 53.638 110.169 53.6385 110.169 53.6385V53.641C110.167 53.641 110.166 53.641 110.165 53.641V53.6441H110.161V53.6471C110.159 53.6471 110.158 53.6476 110.157 53.6476V53.6501H110.153V53.6532C110.152 53.6532 110.15 53.6537 110.149 53.6537V53.6562C110.148 53.6562 110.147 53.6567 110.145 53.6567V53.6597H110.141V53.6622C110.14 53.6622 110.139 53.6627 110.138 53.6627V53.6653C110.137 53.6653 110.135 53.6658 110.134 53.6658V53.6688C110.133 53.6688 110.131 53.6688 110.13 53.6688V53.6713C110.129 53.6713 110.127 53.6718 110.126 53.6718V53.6749H110.122V53.6779C110.121 53.6779 110.12 53.6779 110.118 53.6779V53.6809C110.117 53.6809 110.116 53.6809 110.114 53.6809V53.684H110.11V53.687C110.109 53.687 110.108 53.687 110.107 53.687V53.69C110.105 53.69 110.104 53.69 110.103 53.69V53.693C110.102 53.693 110.1 53.693 110.099 53.693V53.6961C110.098 53.6961 110.097 53.6961 110.095 53.6961V53.6991H110.092V53.7021C110.09 53.7021 110.089 53.7026 110.088 53.7026V53.7052C110.086 53.7052 110.085 53.7052 110.084 53.7052V53.7082H110.08V53.7112C110.079 53.7112 110.077 53.7117 110.076 53.7117V53.7143C110.075 53.7143 110.073 53.7143 110.072 53.7143V53.7173C110.071 53.7173 110.069 53.7178 110.068 53.7178V53.7203C110.067 53.7203 110.065 53.7208 110.065 53.7208V53.7239H110.061V53.7264C110.059 53.7264 110.058 53.7269 110.057 53.7269V53.7294C110.055 53.7294 110.054 53.7299 110.053 53.7299V53.7329H110.049V53.7355C110.048 53.7355 110.047 53.736 110.045 53.736V53.739H110.041V53.742C110.04 53.742 110.039 53.742 110.037 53.742V55.1178C110.519 55.1173 111.001 54.938 111.44 54.5794L111.441 54.5779C111.442 54.5774 111.443 54.5769 111.444 54.5764L111.445 54.5754C111.446 54.5744 111.447 54.5739 111.448 54.5734L111.449 54.5723L111.451 54.5703L111.452 54.5693C111.453 54.5683 111.454 54.5678 111.455 54.5668L111.456 54.5658C111.457 54.5653 111.458 54.5648 111.459 54.5643L111.46 54.5633C111.461 54.5622 111.462 54.5617 111.463 54.5607L111.464 54.5597C111.465 54.5592 111.466 54.5587 111.467 54.5577L111.468 54.5567C111.469 54.5562 111.47 54.5557 111.47 54.5552C111.471 54.5547 111.472 54.5537 111.472 54.5537C111.473 54.5532 111.474 54.5526 111.474 54.5516C111.474 54.5516 111.475 54.5511 111.476 54.5506C111.477 54.5501 111.478 54.5496 111.478 54.5486L111.479 54.5476C111.48 54.5471 111.481 54.5461 111.482 54.5456C111.483 54.5451 111.483 54.5446 111.483 54.5446C111.484 54.5441 111.485 54.5436 111.486 54.5425L111.487 54.5415C111.488 54.541 111.489 54.5405 111.49 54.5395L111.491 54.5385C111.492 54.538 111.493 54.537 111.494 54.5365L111.495 54.5355C111.495 54.5345 111.497 54.534 111.498 54.5335L111.499 54.5324C111.499 54.5319 111.5 54.5314 111.502 54.5304L111.503 54.5294C111.503 54.5289 111.504 54.5279 111.505 54.5274L111.507 54.5264C111.507 54.5254 111.508 54.5249 111.509 54.5244L111.51 54.5234C111.511 54.5228 111.512 54.5218 111.513 54.5213L111.514 54.5203C111.515 54.5198 111.516 54.5188 111.517 54.5183L111.518 54.5173L111.521 54.5153L111.522 54.5143C111.523 54.5133 111.523 54.5127 111.524 54.5122L111.525 54.5112L111.528 54.5092L111.529 54.5082C111.53 54.5072 111.531 54.5067 111.532 54.5062L111.533 54.5047C111.534 54.5042 111.535 54.5037 111.536 54.5026L111.537 54.5021L111.54 54.5001L111.541 54.4991C111.542 54.4981 111.543 54.4976 111.544 54.4966L111.545 54.4956C111.546 54.4951 111.547 54.4946 111.548 54.4936L111.549 54.4925C111.55 54.492 111.551 54.4915 111.552 54.491L111.553 54.49C111.553 54.489 111.554 54.4885 111.555 54.4875C111.555 54.4875 111.556 54.487 111.557 54.4865C111.557 54.486 111.558 54.4855 111.559 54.4845L111.56 54.4835C111.561 54.4829 111.562 54.4824 111.563 54.4814C111.563 54.4814 111.564 54.4809 111.564 54.4804C111.565 54.4799 111.566 54.4794 111.567 54.4784L111.568 54.4774C111.569 54.4769 111.57 54.4764 111.57 54.4754L111.572 54.4744C111.573 54.4739 111.574 54.4728 111.574 54.4723C111.575 54.4718 111.576 54.4713 111.576 54.4713C111.577 54.4708 111.578 54.4703 111.578 54.4693C111.579 54.4693 111.58 54.4683 111.58 54.4683C111.58 54.4678 111.582 54.4673 111.583 54.4663L111.583 54.4653C111.584 54.4648 111.585 54.4638 111.586 54.4633L111.587 54.4622C111.588 54.4612 111.589 54.4607 111.59 54.4602L111.591 54.4592C111.592 54.4587 111.593 54.4577 111.594 54.4572L111.595 54.4562C111.596 54.4557 111.597 54.4547 111.598 54.4542L111.599 54.4532L111.602 54.4511L111.603 54.4501C111.603 54.4496 111.604 54.4486 111.605 54.4481L111.607 54.4471L111.609 54.4451L111.61 54.4441C111.611 54.4431 111.612 54.4425 111.613 54.442L111.614 54.4405C111.615 54.44 111.616 54.4395 111.617 54.439L111.618 54.438L111.621 54.436L111.622 54.435C111.623 54.434 111.624 54.4335 111.625 54.4324L111.626 54.4319C111.627 54.4309 111.627 54.4304 111.628 54.4294L111.629 54.4289L111.632 54.4269L111.633 54.4259C111.634 54.4249 111.635 54.4244 111.636 54.4234L111.637 54.4223C111.638 54.4218 111.639 54.4213 111.64 54.4203L111.641 54.4193C111.642 54.4188 111.643 54.4183 111.644 54.4173L111.645 54.4163C111.646 54.4158 111.647 54.4153 111.648 54.4143L111.649 54.4133C111.65 54.4127 111.651 54.4122 111.652 54.4112L111.653 54.4102C111.654 54.4097 111.655 54.4087 111.655 54.4082L111.657 54.4072C111.657 54.4067 111.658 54.4062 111.659 54.4052C111.659 54.4052 111.66 54.4047 111.66 54.4042C111.661 54.4037 111.662 54.4032 111.663 54.4021L111.664 54.4011C111.665 54.4006 111.666 54.3996 111.667 54.3991L111.668 54.3981C111.669 54.3976 111.67 54.3971 111.671 54.3961L111.672 54.3951C111.673 54.3946 111.674 54.3936 111.674 54.3931C111.675 54.3925 111.676 54.392 111.676 54.392C111.677 54.3915 111.678 54.3905 111.678 54.39C111.679 54.3895 111.68 54.389 111.68 54.389C111.68 54.388 111.682 54.3875 111.682 54.387L111.684 54.386C111.684 54.3855 111.685 54.3845 111.687 54.384L111.687 54.3829C111.688 54.3824 111.689 54.3814 111.69 54.3809L111.691 54.3799C111.692 54.3789 111.693 54.3784 111.694 54.3779L111.695 54.3769C111.696 54.3764 111.697 54.3754 111.698 54.3749L111.699 54.3739C111.7 54.3728 111.701 54.3723 111.702 54.3718L111.703 54.3708C111.704 54.3698 111.704 54.3693 111.705 54.3683L111.707 54.3678C111.707 54.3668 111.708 54.3663 111.709 54.3658L111.71 54.3648L111.713 54.3627L111.714 54.3617C111.715 54.3607 111.716 54.3602 111.717 54.3592L111.718 54.3582L111.721 54.3562L111.722 54.3552L111.725 54.3537L111.726 54.3521C111.727 54.3516 111.728 54.3511 111.729 54.3501L111.73 54.3491L111.732 54.3471L111.733 54.3461C111.734 54.3456 111.735 54.3446 111.736 54.3441L111.737 54.3436C111.738 54.3425 111.739 54.342 111.74 54.341L111.741 54.34C111.742 54.3395 111.743 54.339 111.744 54.338L111.745 54.337C111.746 54.3365 111.747 54.3355 111.748 54.335L111.749 54.334C111.75 54.3335 111.751 54.3329 111.752 54.3319L111.753 54.3309C111.754 54.3304 111.755 54.3299 111.755 54.3289C111.755 54.3289 111.756 54.3284 111.757 54.3279C111.758 54.3274 111.759 54.3264 111.759 54.3259L111.76 54.3249C111.761 54.3239 111.762 54.3239 111.763 54.3228C111.763 54.3228 111.764 54.3223 111.764 54.3218C111.765 54.3213 111.766 54.3203 111.767 54.3198C111.767 54.3198 111.768 54.3193 111.768 54.3188C111.769 54.3178 111.77 54.3173 111.771 54.3168C111.772 54.3163 111.772 54.3158 111.772 54.3158C111.773 54.3148 111.774 54.3143 111.775 54.3138L111.776 54.3127C111.777 54.3122 111.778 54.3112 111.779 54.3107L111.78 54.3097C111.78 54.3087 111.782 54.3082 111.783 54.3077L111.784 54.3067C111.784 54.3057 111.785 54.3052 111.787 54.3042L111.788 54.3037C111.788 54.3026 111.789 54.3021 111.79 54.3016L111.791 54.3006C111.792 54.2996 111.793 54.2991 111.794 54.2986L111.795 54.2976C111.796 54.2966 111.797 54.2961 111.798 54.2951L111.799 54.2946C111.8 54.2936 111.801 54.2931 111.802 54.292L111.803 54.2915L111.806 54.2895L111.807 54.2885C111.808 54.2875 111.808 54.287 111.809 54.286L111.81 54.285L111.813 54.2829L111.814 54.2819C111.815 54.2814 111.816 54.2809 111.817 54.2799L111.818 54.2789L111.821 54.2769L111.822 54.2759L111.825 54.2739L111.826 54.2728C111.827 54.2723 111.828 54.2713 111.829 54.2708L111.83 54.2698C111.831 54.2693 111.832 54.2688 111.833 54.2678L111.834 54.2668L111.836 54.2648L111.837 54.2638C111.838 54.2627 111.839 54.2622 111.84 54.2617L111.841 54.2607C111.842 54.2602 111.843 54.2597 111.844 54.2587L111.845 54.2577C111.846 54.2572 111.847 54.2562 111.848 54.2557L111.849 54.2547C111.85 54.2542 111.851 54.2532 111.852 54.2526C111.852 54.2526 111.852 54.2516 111.853 54.2516C111.854 54.2506 111.855 54.2501 111.855 54.2496L111.857 54.2486C111.858 54.2481 111.859 54.2471 111.859 54.2466C111.859 54.2466 111.86 54.2456 111.861 54.2456C111.862 54.2446 111.863 54.2441 111.863 54.2436C111.863 54.2436 111.864 54.2425 111.865 54.2425C111.865 54.2415 111.866 54.241 111.867 54.2405L111.868 54.2395C111.869 54.239 111.87 54.238 111.871 54.2375C111.872 54.237 111.872 54.2365 111.872 54.2365C111.873 54.2355 111.874 54.235 111.875 54.2345L111.876 54.2335C111.877 54.2324 111.878 54.2319 111.879 54.2309L111.88 54.2304C111.88 54.2294 111.882 54.2289 111.883 54.2284L111.884 54.2274C111.884 54.2264 111.885 54.2259 111.887 54.2254L111.888 54.2244C111.888 54.2234 111.889 54.2228 111.89 54.2218L111.892 54.2208C111.892 54.2203 111.893 54.2198 111.894 54.2188L111.895 54.2183C111.896 54.2173 111.897 54.2168 111.898 54.2163L111.899 54.2148C111.9 54.2143 111.901 54.2138 111.902 54.2127L111.903 54.2117C111.904 54.2112 111.905 54.2107 111.906 54.2097L111.907 54.2087C111.908 54.2082 111.909 54.2077 111.91 54.2067L111.91 54.2062C111.912 54.2052 111.912 54.2047 111.913 54.2037L111.914 54.2026L111.917 54.2006L111.918 54.1996C111.919 54.1991 111.92 54.1981 111.921 54.1976L111.922 54.1966L111.925 54.1946L111.926 54.1936C111.927 54.1931 111.928 54.1925 111.929 54.1915L111.93 54.1905C111.931 54.1895 111.932 54.189 111.933 54.1885L111.934 54.1875C111.935 54.187 111.936 54.1865 111.937 54.1855L111.938 54.1845C111.939 54.184 111.94 54.1824 111.94 54.1824L111.941 54.1814C111.942 54.1804 111.943 54.1799 111.944 54.1794C111.944 54.1794 111.945 54.1784 111.945 54.1784C111.946 54.1774 111.947 54.1769 111.948 54.1764L111.949 54.1754C111.95 54.1749 111.951 54.1739 111.952 54.1734C111.952 54.1734 111.953 54.1723 111.953 54.1723C111.954 54.1713 111.955 54.1708 111.955 54.1703L111.957 54.1693C111.958 54.1683 111.959 54.1678 111.959 54.1668L111.96 54.1663C111.962 54.1658 111.963 54.1648 111.963 54.1643C111.964 54.1638 111.965 54.1633 111.965 54.1633C111.965 54.1622 111.967 54.1617 111.967 54.1612C111.967 54.1612 111.968 54.1602 111.969 54.1602C111.969 54.1592 111.97 54.1587 111.971 54.1577C111.972 54.1577 111.972 54.1567 111.972 54.1567C111.973 54.1562 111.974 54.1557 111.975 54.1552C111.975 54.1547 111.976 54.1542 111.976 54.1542C111.977 54.1532 111.978 54.1526 111.979 54.1521L111.98 54.1506C111.981 54.1501 111.982 54.1496 111.983 54.1486L111.984 54.1476C111.984 54.1476 111.985 54.1466 111.987 54.1456L111.988 54.1451C111.988 54.1441 111.989 54.1436 111.99 54.1425L111.992 54.1415L111.994 54.1395L111.995 54.1385L111.998 54.1365L111.999 54.1355C112 54.135 112.001 54.1345 112.002 54.1335L112.003 54.1324L112.006 54.1304L112.007 54.1294C112.008 54.1289 112.009 54.1284 112.01 54.1274L112.011 54.1264L112.014 54.1244L112.014 54.1234L112.017 54.1213L112.018 54.1203C112.019 54.1198 112.02 54.1188 112.021 54.1183L112.022 54.1173C112.023 54.1163 112.024 54.1158 112.025 54.1153L112.026 54.1143C112.027 54.1133 112.028 54.1133 112.029 54.1122L112.03 54.1112C112.031 54.1107 112.032 54.1097 112.033 54.1092L112.034 54.1082C112.035 54.1072 112.036 54.1067 112.037 54.1062L112.038 54.1052C112.039 54.1042 112.04 54.1037 112.04 54.1032L112.042 54.1021C112.043 54.1011 112.044 54.1001 112.044 54.1001L112.045 54.0991C112.046 54.0981 112.047 54.0976 112.048 54.0971C112.048 54.0971 112.049 54.0961 112.049 54.0961C112.05 54.0951 112.051 54.0946 112.052 54.0936L112.053 54.093C112.054 54.092 112.055 54.0915 112.056 54.091L112.057 54.09C112.058 54.089 112.059 54.0885 112.059 54.088L112.06 54.087C112.062 54.086 112.063 54.0855 112.063 54.0845C112.064 54.0845 112.065 54.0835 112.065 54.0835C112.065 54.0829 112.067 54.0824 112.067 54.0819C112.068 54.0814 112.068 54.0809 112.069 54.0809C112.069 54.0799 112.07 54.0794 112.071 54.0784C112.072 54.0784 112.073 54.0774 112.073 54.0774C112.073 54.0769 112.074 54.0764 112.075 54.0754L112.076 54.0744C112.077 54.0739 112.078 54.0734 112.079 54.0723L112.08 54.0713C112.081 54.0708 112.082 54.0703 112.083 54.0693L112.084 54.0683C112.085 54.0678 112.086 54.0673 112.087 54.0663L112.088 54.0653C112.088 54.0653 112.089 54.0643 112.09 54.0633L112.092 54.0622L112.094 54.0602L112.095 54.0592C112.096 54.0587 112.097 54.0582 112.098 54.0572L112.099 54.0562C112.1 54.0557 112.101 54.0547 112.102 54.0542L112.103 54.0532C112.104 54.0526 112.105 54.0516 112.106 54.0511L112.107 54.0501L112.11 54.0481L112.111 54.0471C112.112 54.0466 112.113 54.0456 112.114 54.0451L112.115 54.0441L112.118 54.042L112.118 54.041C112.119 54.04 112.12 54.0395 112.121 54.039L112.122 54.038C112.123 54.0375 112.124 54.0365 112.125 54.036L112.126 54.035L112.129 54.0329L112.13 54.0319C112.131 54.0309 112.132 54.0304 112.133 54.0294L112.134 54.0289C112.135 54.0284 112.135 54.0274 112.137 54.0269L112.138 54.0259C112.139 54.0249 112.14 54.0244 112.14 54.0239L112.142 54.0228C112.143 54.0218 112.144 54.0213 112.144 54.0203L112.145 54.0193C112.147 54.0188 112.148 54.0178 112.148 54.0178L112.149 54.0168L112.152 54.0148C112.152 54.0148 112.153 54.0138 112.153 54.0133C112.154 54.0127 112.155 54.0122 112.156 54.0112L112.157 54.0102C112.158 54.0097 112.159 54.0092 112.16 54.0082L112.161 54.0077C112.162 54.0067 112.163 54.0062 112.163 54.0052C112.164 54.0052 112.165 54.0042 112.165 54.0042C112.165 54.0037 112.167 54.0032 112.167 54.0021C112.168 54.0021 112.169 54.0011 112.169 54.0011C112.169 54.0006 112.17 54.0001 112.172 53.9991L112.173 53.9981C112.173 53.9976 112.174 53.9971 112.175 53.9961L112.177 53.9951C112.177 53.9946 112.178 53.9941 112.179 53.993L112.18 53.992C112.181 53.9915 112.182 53.991 112.183 53.99L112.184 53.989L112.187 53.987L112.188 53.986C112.189 53.9855 112.19 53.985 112.191 53.984L112.192 53.9829C112.193 53.9824 112.193 53.9814 112.194 53.9809L112.195 53.9799C112.196 53.9789 112.197 53.9784 112.198 53.9779L112.199 53.9769L112.202 53.9749L112.203 53.9739C112.204 53.9734 112.205 53.9723 112.206 53.9718L112.207 53.9708L112.21 53.9688L112.211 53.9678C112.212 53.9668 112.213 53.9663 112.214 53.9658L112.215 53.9648C112.216 53.9643 112.217 53.9633 112.218 53.9627L112.219 53.9617L112.222 53.9597L112.223 53.9587C112.223 53.9577 112.224 53.9572 112.225 53.9562L112.226 53.9557L112.229 53.9537L112.23 53.9526C112.231 53.9516 112.232 53.9511 112.233 53.9501L112.234 53.9491C112.235 53.9486 112.236 53.9481 112.237 53.9471L112.238 53.9461C112.239 53.9456 112.24 53.9451 112.24 53.9446C112.24 53.9446 112.241 53.9436 112.242 53.9436C112.243 53.9425 112.244 53.942 112.244 53.941L112.245 53.94C112.247 53.9395 112.248 53.939 112.248 53.938L112.249 53.937C112.25 53.9365 112.252 53.936 112.252 53.935L112.253 53.9345C112.254 53.9335 112.255 53.9329 112.256 53.9319L112.257 53.9309C112.258 53.9304 112.259 53.9299 112.26 53.9289L112.261 53.9279C112.262 53.9274 112.263 53.9269 112.264 53.9259C112.264 53.9254 112.265 53.9249 112.265 53.9249C112.266 53.9239 112.267 53.9239 112.267 53.9228C112.268 53.9228 112.269 53.9218 112.269 53.9218C112.269 53.9213 112.27 53.9208 112.271 53.9198L112.273 53.9188C112.273 53.9183 112.274 53.9173 112.275 53.9168L112.277 53.9158L112.279 53.9138L112.28 53.9127C112.281 53.9122 112.282 53.9112 112.283 53.9107L112.284 53.9097C112.285 53.9092 112.286 53.9082 112.287 53.9077L112.288 53.9067L112.291 53.9047L112.292 53.9037C112.293 53.9026 112.294 53.9021 112.295 53.9016L112.296 53.9006C112.297 53.9001 112.297 53.8991 112.298 53.8986L112.299 53.8976L112.302 53.8956L112.303 53.8946C112.304 53.8936 112.305 53.8931 112.306 53.8925L112.307 53.8915C112.308 53.8905 112.309 53.89 112.31 53.8895L112.311 53.8885C112.312 53.8875 112.313 53.887 112.314 53.8865L112.315 53.8855C112.316 53.8845 112.317 53.884 112.318 53.8829L112.319 53.8819L112.322 53.8804L112.323 53.8794C112.324 53.8784 112.324 53.8779 112.325 53.8769L112.327 53.8759C112.327 53.8754 112.328 53.8749 112.329 53.8739L112.33 53.8728C112.331 53.8723 112.332 53.8718 112.333 53.8713L112.334 53.8703C112.335 53.8693 112.336 53.8688 112.337 53.8678L112.338 53.8673C112.339 53.8663 112.34 53.8658 112.341 53.8648L112.342 53.8638C112.343 53.8633 112.344 53.8622 112.344 53.8617C112.344 53.8617 112.345 53.8612 112.346 53.8607C112.347 53.8602 112.348 53.8597 112.348 53.8587L112.349 53.8577C112.35 53.8572 112.352 53.8567 112.352 53.8557L112.354 53.8547C112.354 53.8542 112.355 53.8532 112.356 53.8526C112.356 53.8526 112.357 53.8521 112.357 53.8516C112.358 53.8506 112.359 53.8501 112.36 53.8496C112.36 53.8496 112.361 53.8486 112.361 53.8486C112.362 53.8481 112.363 53.8476 112.364 53.8466L112.365 53.8456C112.366 53.8451 112.367 53.8441 112.368 53.8436L112.369 53.8425C112.37 53.8415 112.371 53.841 112.372 53.8405L112.373 53.8395C112.373 53.839 112.374 53.8385 112.375 53.8375L112.377 53.8365C112.377 53.8355 112.378 53.835 112.379 53.8345L112.38 53.8335C112.381 53.8324 112.382 53.8319 112.383 53.8314L112.384 53.8304C112.385 53.8294 112.386 53.8289 112.387 53.8284L112.388 53.8274C112.389 53.8264 112.39 53.8259 112.391 53.8254L112.392 53.8244L112.395 53.8223L112.396 53.8213C112.397 53.8203 112.398 53.8198 112.399 53.8188L112.4 53.8183L112.402 53.8163L112.403 53.8153C112.404 53.8143 112.405 53.8138 112.406 53.8127L112.407 53.8117C112.408 53.8112 112.409 53.8107 112.41 53.8097L112.411 53.8087L112.414 53.8072L112.415 53.8062C112.416 53.8052 112.417 53.8047 112.418 53.8037L112.419 53.8032C112.42 53.8021 112.42 53.8016 112.422 53.8006L112.423 53.7996L112.425 53.7976L112.427 53.7971C112.428 53.7961 112.429 53.7956 112.429 53.7946L112.43 53.7936C112.431 53.7931 112.432 53.7925 112.433 53.7915L112.434 53.7905L112.437 53.7885C112.437 53.7885 112.438 53.788 112.438 53.7875C112.439 53.787 112.44 53.7865 112.441 53.7855L112.442 53.7845C112.443 53.784 112.444 53.7835 112.445 53.7824L112.446 53.7814C112.447 53.7809 112.448 53.7799 112.448 53.7794L112.449 53.7784C112.45 53.7774 112.452 53.7769 112.452 53.7764C112.452 53.7764 112.453 53.7759 112.454 53.7754C112.454 53.7749 112.455 53.7739 112.456 53.7734L112.458 53.7723C112.458 53.7718 112.459 53.7708 112.46 53.7703L112.461 53.7693C112.462 53.7683 112.463 53.7678 112.464 53.7673C112.464 53.7668 112.465 53.7663 112.465 53.7663C112.466 53.7658 112.467 53.7653 112.468 53.7643L112.469 53.7633C112.47 53.7622 112.471 53.7617 112.472 53.7612L112.473 53.7602C112.474 53.7592 112.475 53.7587 112.475 53.7582L112.477 53.7572C112.477 53.7562 112.478 53.7557 112.479 53.7552L112.48 53.7542L112.483 53.7521L112.484 53.7511C112.485 53.7501 112.486 53.7496 112.487 53.7486L112.488 53.7481C112.489 53.7471 112.49 53.7466 112.491 53.7456L112.492 53.7451C112.493 53.7441 112.494 53.7436 112.495 53.7431L112.496 53.742C112.497 53.741 112.498 53.7405 112.499 53.7395L112.5 53.739C112.501 53.738 112.502 53.7375 112.503 53.7365L112.504 53.7355L112.506 53.734L112.507 53.7329C112.508 53.7319 112.509 53.7314 112.51 53.7304L112.511 53.7294L112.514 53.7274L112.515 53.7264C112.516 53.7259 112.517 53.7254 112.518 53.7244L112.519 53.7234L112.522 53.7213L112.523 53.7203C112.524 53.7198 112.525 53.7193 112.525 53.7183L112.527 53.7173C112.528 53.7168 112.529 53.7158 112.529 53.7153L112.53 53.7143C112.532 53.7133 112.533 53.7133 112.533 53.7122L112.534 53.7112C112.535 53.7107 112.536 53.7102 112.537 53.7092L112.538 53.7082C112.539 53.7077 112.54 53.7067 112.541 53.7062C112.541 53.7062 112.542 53.7052 112.542 53.7052C112.543 53.7042 112.544 53.7037 112.545 53.7032L112.546 53.7021C112.547 53.7016 112.548 53.7006 112.549 53.7001L112.55 53.6991C112.55 53.6981 112.552 53.6976 112.552 53.6971L112.553 53.6961C112.554 53.6951 112.555 53.6946 112.556 53.6941L112.558 53.693C112.558 53.6925 112.559 53.6915 112.56 53.691C112.561 53.6905 112.562 53.69 112.562 53.69C112.562 53.689 112.563 53.6885 112.564 53.688C112.565 53.6875 112.565 53.687 112.565 53.687C112.566 53.686 112.567 53.6855 112.568 53.685L112.569 53.684C112.57 53.6829 112.571 53.6824 112.572 53.6819L112.573 53.6809C112.574 53.6799 112.575 53.6794 112.576 53.6789L112.577 53.6779C112.578 53.6769 112.579 53.6764 112.58 53.6759L112.58 53.6744L112.583 53.6723L112.584 53.6713C112.585 53.6708 112.586 53.6703 112.587 53.6698L112.588 53.6688C112.589 53.6678 112.59 53.6673 112.591 53.6663L112.592 53.6658C112.593 53.6648 112.594 53.6643 112.595 53.6633L112.596 53.6622C112.597 53.6617 112.598 53.6607 112.599 53.6607C113.476 52.9431 114 51.6597 114 50.2264C114 47.6491 113.019 45.2481 111.441 43.9597Z" fill="#FFF9FF"/>
<path d="M110.282 44.8788L110.037 44.6788V46.2813C111.174 47.3636 111.869 49.1924 111.869 51.1454C111.869 52.0823 111.527 52.9212 110.954 53.3904C110.667 53.6242 110.352 53.7419 110.037 53.7424V55.1182C110.519 55.1177 111.001 54.9384 111.44 54.5798C112.317 53.8621 112.841 52.5788 112.841 51.1454C112.841 48.5682 111.86 46.1672 110.282 44.8788Z" fill="#BCBACE"/>
<mask id="mask1_1_495" style="mask-type:luminance" maskUnits="userSpaceOnUse" x="29" y="52" width="90" height="63">
<path d="M29.866 52.2894H118.135V114.943H29.866V52.2894Z" fill="white"/>
</mask>
<g mask="url(#mask1_1_495)">
<g opacity="0.5">
<path d="M74.5842 114.942L29.866 87.3184L74.8556 52.2886C74.8556 52.2886 121.387 80.5225 117.954 81.8301C114.52 83.1386 74.5842 114.942 74.5842 114.942Z" fill="#647DDD"/>
</g>
</g>
<path d="M43.4643 32.0754L82.2258 0.675381C82.9222 0.110734 83.8261 -0.157951 84.6083 0.0965948C85.7065 0.455181 86.7368 0.943562 86.7343 2.30366L86.7929 53.2527L83.3829 56.1016C84.4986 56.8698 118.524 80.289 118.58 80.3466L118.662 82.3122C118.662 83.1602 118.345 83.942 117.826 84.3673C112.034 89.1112 78.1065 116.847 78.1065 116.847C76.9901 117.759 75.6143 117.759 74.4983 116.847L42.2515 90.489C41.9151 90.2143 41.7079 89.7067 41.7072 89.1572L41.6511 36.4865C41.6543 34.6638 42.3458 32.9814 43.4643 32.0754Z" fill="#57438E"/>
<path d="M42.7932 88.9847L86.8271 53.4549L86.9179 2.61802C86.9207 1.14933 85.7986 0.227106 84.8975 0.957409L44.2911 33.8519C43.4071 34.568 42.8607 35.8973 42.8582 37.3382L42.7932 88.9847Z" fill="#381E60"/>
<path d="M85.1065 3.90863L44.7936 36.6303L44.7097 84.4894L85.1065 51.6965V3.90863Z" fill="#381E60"/>
<path d="M42.8185 88.9803L86.8292 53.0879L117.954 78.5268C118.853 79.2616 118.853 81.097 117.954 81.8313L77.4356 114.943C76.5535 115.664 75.4663 115.664 74.5842 114.943L42.8185 88.9803Z" fill="#FFF9FF"/>
<path d="M54.9992 90.0844C54.1228 90.796 53.6846 91.152 52.8081 91.8636C51.9217 91.1551 51.4788 90.801 50.5928 90.0929C51.4692 89.3808 51.9074 89.0248 52.7838 88.3131C53.6699 89.0217 54.1131 89.3763 54.9992 90.0844Z" fill="#57438E"/>
<path d="M58.2341 87.4583C57.3576 88.1699 56.9194 88.526 56.043 89.2376C55.1566 88.529 54.7137 88.175 53.8276 87.4669C54.7041 86.7548 55.1423 86.3987 56.0187 85.6871C56.9048 86.3957 57.348 86.7497 58.2341 87.4583Z" fill="#57438E"/>
<path d="M61.4686 84.8311C60.5921 85.5427 60.1539 85.8988 59.2771 86.6104C58.3911 85.9023 57.9482 85.5483 57.0618 84.8402C57.9386 84.1276 58.3768 83.772 59.2532 83.0604C60.1393 83.7685 60.5825 84.123 61.4686 84.8311Z" fill="#57438E"/>
<path d="M64.7034 82.2051C63.8266 82.9167 63.3884 83.2728 62.512 83.9844C61.6259 83.2763 61.1827 82.9217 60.2966 82.2137C61.1731 81.5015 61.6113 81.1455 62.4881 80.4339C63.3741 81.1425 63.8173 81.4965 64.7034 82.2051Z" fill="#57438E"/>
<path d="M67.9375 79.5779C67.0611 80.2895 66.6225 80.6456 65.7461 81.3572C64.86 80.6491 64.4168 80.2951 63.5308 79.587C64.4072 78.8743 64.8458 78.5188 65.7222 77.8067C66.6083 78.5153 67.0515 78.8698 67.9375 79.5779Z" fill="#57438E"/>
<path d="M71.1724 76.9511C70.2956 77.6632 69.8574 78.0188 68.981 78.7304C68.0949 78.0223 67.6517 77.6683 66.7656 76.9602C67.6421 76.2481 68.0806 75.892 68.9571 75.1804C69.8431 75.8885 70.2863 76.243 71.1724 76.9511Z" fill="#57438E"/>
<path d="M74.4073 74.3247C73.5305 75.0363 73.0923 75.3924 72.2158 76.104C71.3298 75.3959 70.8866 75.0413 70.0005 74.3333C70.8769 73.6211 71.3151 73.2651 72.1919 72.5535C73.078 73.2621 73.5212 73.6161 74.4073 74.3247Z" fill="#57438E"/>
<path d="M77.6414 71.6979C76.7646 72.4095 76.3264 72.7656 75.45 73.4772C74.5639 72.7691 74.1207 72.4151 73.2346 71.7065C74.111 70.9943 74.5493 70.6388 75.426 69.9267C76.3121 70.6353 76.7553 70.9898 77.6414 71.6979Z" fill="#57438E"/>
<path d="M80.8763 69.071C79.9998 69.7832 79.5613 70.1387 78.6848 70.8503C77.7988 70.1423 77.3556 69.7882 76.4695 69.0801C77.3463 68.368 77.7845 68.012 78.6609 67.3003C79.547 68.0084 79.9902 68.363 80.8763 69.071Z" fill="#57438E"/>
<path d="M84.1103 66.4446C83.2338 67.1563 82.7956 67.5123 81.9188 68.2239C81.0328 67.5159 80.5899 67.1618 79.7035 66.4532C80.5803 65.7411 81.0185 65.385 81.8949 64.6739C82.781 65.382 83.2242 65.7366 84.1103 66.4446Z" fill="#57438E"/>
<path d="M87.3448 63.8181C86.4684 64.5297 86.0301 64.8858 85.1537 65.5979C84.2673 64.8893 83.8244 64.5348 82.9384 63.8267C83.8148 63.1146 84.253 62.759 85.1294 62.0474C86.0155 62.7555 86.4587 63.11 87.3448 63.8181Z" fill="#57438E"/>
<path d="M90.5793 61.1918C89.7028 61.904 89.2643 62.2595 88.3878 62.9711C87.5018 62.263 87.0589 61.9085 86.1725 61.2004C87.0489 60.4883 87.4875 60.1327 88.3639 59.4211C89.2496 60.1292 89.6932 60.4838 90.5793 61.1918Z" fill="#57438E"/>
<path d="M58.1093 92.5704C57.2329 93.282 56.7947 93.6381 55.9179 94.3497C55.0318 93.6411 54.5886 93.287 53.7025 92.579C54.5789 91.8668 55.0172 91.5108 55.8936 90.7992C56.7797 91.5078 57.2232 91.8623 58.1093 92.5704Z" fill="#57438E"/>
<path d="M61.3434 89.944C60.467 90.6556 60.0284 91.0111 59.152 91.7233C58.2659 91.0147 57.8227 90.6606 56.9366 89.9526C57.8131 89.2399 58.2513 88.8844 59.1277 88.1728C60.0138 88.8813 60.4574 89.2354 61.3434 89.944Z" fill="#57438E"/>
<path d="M64.5779 87.3171C63.7011 88.0288 63.2629 88.3848 62.3865 89.0964C61.5004 88.3884 61.0572 88.0343 60.1708 87.3257C61.0476 86.6136 61.4858 86.2575 62.3622 85.5459C63.2486 86.2545 63.6915 86.6091 64.5779 87.3171Z" fill="#57438E"/>
<path d="M67.8124 84.6907C66.936 85.4024 66.4974 85.7584 65.621 86.47C64.7346 85.7614 64.2917 85.4074 63.4056 84.6993C64.2821 83.9872 64.7203 83.6311 65.5967 82.9195C66.4831 83.6281 66.9264 83.9822 67.8124 84.6907Z" fill="#57438E"/>
<path d="M71.0468 82.0639C70.17 82.7756 69.7318 83.1316 68.8554 83.8432C67.9689 83.1352 67.5261 82.7811 66.6396 82.0725C67.5164 81.3604 67.9546 81.0043 68.8311 80.2927C69.7175 81.0013 70.1607 81.3559 71.0468 82.0639Z" fill="#57438E"/>
<path d="M74.2817 79.4371C73.4049 80.1493 72.9667 80.5048 72.0902 81.2164L69.8745 79.4462C70.7513 78.7336 71.1895 78.378 72.0659 77.6659C72.9524 78.3745 73.3952 78.7291 74.2817 79.4371Z" fill="#57438E"/>
<path d="M77.5162 76.8107C76.6397 77.5224 76.2012 77.8784 75.3247 78.59C74.4387 77.8814 73.9954 77.5274 73.1094 76.8193C73.9858 76.1067 74.424 75.7511 75.3004 75.0395C76.1869 75.7481 76.6301 76.1021 77.5162 76.8107Z" fill="#57438E"/>
<path d="M80.751 74.1839C79.8746 74.8955 79.436 75.2516 78.5596 75.9632C77.6732 75.2551 77.2303 74.9006 76.3442 74.1925C77.2207 73.4804 77.6589 73.1243 78.5353 72.4127C79.4217 73.1213 79.865 73.4758 80.751 74.1839Z" fill="#57438E"/>
<path d="M83.9855 71.5567C83.1087 72.2689 82.6705 72.6244 81.7941 73.336C80.9077 72.6279 80.4648 72.2739 79.5784 71.5653C80.4552 70.8532 80.8934 70.4976 81.7698 69.7855C82.6562 70.4941 83.0994 70.8487 83.9855 71.5567Z" fill="#57438E"/>
<path d="M87.22 68.9307C86.3436 69.6423 85.905 69.9983 85.0289 70.71C84.1425 70.0014 83.6993 69.6473 82.8132 68.9393C83.6897 68.2271 84.1279 67.8711 85.0043 67.1595C85.8907 67.868 86.3339 68.2226 87.22 68.9307Z" fill="#57438E"/>
<path d="M90.4549 66.3044C89.5785 67.016 89.1399 67.3716 88.2635 68.0832C87.3774 67.3751 86.9345 67.0211 86.0481 66.3125C86.9245 65.6004 87.3627 65.2448 88.2392 64.5332C89.1252 65.2418 89.5688 65.5958 90.4549 66.3044Z" fill="#57438E"/>
<path d="M93.6891 63.6777C92.2198 64.8712 91.4848 65.4676 90.0155 66.6611C89.1287 65.9525 88.6859 65.5984 87.7998 64.8899C89.2694 63.6969 90.0041 63.1 91.4737 61.9065C92.3598 62.6151 92.803 62.9692 93.6891 63.6777Z" fill="#57438E"/>
<path d="M62.6669 93.8801C61.2112 95.0625 60.4833 95.6534 59.028 96.8357C58.1415 96.1266 57.6983 95.7726 56.8123 95.0645C58.268 93.8822 58.9955 93.2912 60.4512 92.1089C61.3373 92.8175 61.7805 93.1721 62.6669 93.8801Z" fill="#57438E"/>
<path d="M64.4532 92.4296C63.5764 93.1412 63.1382 93.4973 62.2617 94.2089C61.3757 93.5003 60.9325 93.1463 60.0464 92.4382C60.9228 91.7256 61.361 91.37 62.2375 90.6584C63.1235 91.367 63.5671 91.721 64.4532 92.4296Z" fill="#57438E"/>
<path d="M67.6877 89.8028C66.8109 90.5149 66.3727 90.8705 65.4962 91.5821C64.6098 90.874 64.1669 90.52 63.2805 89.8114C64.1569 89.0993 64.5955 88.7437 65.4719 88.0316C66.358 88.7402 66.8012 89.0947 67.6877 89.8028Z" fill="#57438E"/>
<path d="M70.9225 87.1764C70.0457 87.888 69.6075 88.2441 68.7311 88.9557C67.8447 88.2471 67.4018 87.8931 66.5154 87.185C67.3922 86.4729 67.8304 86.1168 68.7068 85.4052C69.5932 86.1138 70.0365 86.4678 70.9225 87.1764Z" fill="#57438E"/>
<path d="M74.1567 84.5496C73.2799 85.2617 72.8417 85.6173 71.9652 86.3289C71.0788 85.6208 70.6359 85.2668 69.7495 84.5582C70.6259 83.8461 71.0642 83.49 71.9409 82.7784C72.827 83.487 73.2702 83.8415 74.1567 84.5496Z" fill="#57438E"/>
<path d="M77.3915 81.9227C76.5147 82.6348 76.0765 82.9903 75.2001 83.7025C74.3137 82.9939 73.8708 82.6398 72.9844 81.9312C73.8608 81.2191 74.299 80.8636 75.1758 80.1514C76.0619 80.86 76.5051 81.2146 77.3915 81.9227Z" fill="#57438E"/>
<path d="M80.6264 79.2964C79.75 80.008 79.3114 80.3641 78.435 81.0757C77.5485 80.3676 77.1057 80.0131 76.2192 79.305C77.096 78.5929 77.5342 78.2368 78.4107 77.5252C79.2971 78.2338 79.7403 78.5878 80.6264 79.2964Z" fill="#57438E"/>
<path d="M83.8604 76.6696C82.984 77.3812 82.5454 77.7372 81.669 78.4489C80.7825 77.7408 80.3397 77.3867 79.4532 76.6781C80.33 75.966 80.7682 75.61 81.6447 74.8983C82.5311 75.6069 82.9743 75.9615 83.8604 76.6696Z" fill="#57438E"/>
<path d="M87.0949 74.0427C86.2185 74.7548 85.7803 75.1103 84.9035 75.8224C84.0174 75.1139 83.5742 74.7598 82.6881 74.0512C83.5645 73.3391 84.0028 72.9836 84.8792 72.2714C85.7656 72.98 86.2088 73.3346 87.0949 74.0427Z" fill="#57438E"/>
<path d="M90.3298 71.4164C89.4533 72.128 89.0148 72.484 88.1383 73.1956C87.2523 72.4876 86.8094 72.133 85.923 71.4249C86.7994 70.7128 87.238 70.3568 88.1144 69.6451C89.0005 70.3537 89.4437 70.7083 90.3298 71.4164Z" fill="#57438E"/>
<path d="M93.5646 68.7899C92.6882 69.5015 92.2496 69.8571 91.3732 70.5692C90.4871 69.8606 90.0443 69.5066 89.1578 68.798C90.0343 68.0859 90.4725 67.7303 91.3489 67.0187C92.235 67.7273 92.6786 68.0813 93.5646 68.7899Z" fill="#57438E"/>
<path d="M96.7988 66.1637C95.9223 66.8753 95.4841 67.2308 94.6077 67.9424C93.7216 67.2344 93.2784 66.8803 92.392 66.1717C93.2684 65.4596 93.707 65.1041 94.5834 64.3924C95.4695 65.101 95.9127 65.4551 96.7988 66.1637Z" fill="#57438E"/>
<path d="M64.3281 97.5417C63.4516 98.2533 63.0134 98.6094 62.137 99.321C61.2506 98.6124 60.8077 98.2584 59.9213 97.5503C60.7977 96.8382 61.2359 96.4821 62.1123 95.7705C62.9988 96.4791 63.442 96.8336 64.3281 97.5417Z" fill="#57438E"/>
<path d="M67.5629 94.9157C66.6865 95.6273 66.2483 95.9833 65.3718 96.6949C64.4854 95.9864 64.0426 95.6323 63.1561 94.9242C64.0326 94.2121 64.4708 93.8561 65.3472 93.1444C66.2336 93.853 66.6768 94.2076 67.5629 94.9157Z" fill="#57438E"/>
<path d="M70.797 92.289C69.9206 93.0006 69.4824 93.3561 68.6056 94.0677C67.7195 93.3597 67.2763 93.0056 66.3903 92.297C67.2667 91.5849 67.7049 91.2294 68.5813 90.5172C69.4678 91.2263 69.911 91.5804 70.797 92.289Z" fill="#57438E"/>
<path d="M74.0314 89.6624C73.1546 90.374 72.7164 90.7301 71.84 91.4417C70.9536 90.7336 70.5107 90.3791 69.6243 89.671C70.5011 88.9589 70.9393 88.6028 71.8157 87.8912C72.7021 88.5998 73.1453 88.9543 74.0314 89.6624Z" fill="#57438E"/>
<path d="M77.2659 87.0356C76.3895 87.7478 75.9509 88.1033 75.0745 88.8149C74.1884 88.1069 73.7452 87.7528 72.8591 87.0442C73.7356 86.3321 74.1738 85.9766 75.0502 85.2644C75.9366 85.973 76.3798 86.3276 77.2659 87.0356Z" fill="#57438E"/>
<path d="M80.5008 84.4087C79.6244 85.1208 79.1858 85.4764 78.3094 86.1885C77.4233 85.4799 76.9801 85.1259 76.094 84.4178C76.9704 83.7052 77.4086 83.3496 78.2851 82.638C79.1715 83.3461 79.6147 83.7006 80.5008 84.4087Z" fill="#57438E"/>
<path d="M83.736 81.7824C82.8592 82.494 82.421 82.8501 81.5446 83.5617C80.6581 82.8536 80.2153 82.4991 79.3289 81.791C80.2056 81.0789 80.6439 80.7228 81.5203 80.0112C82.4067 80.7198 82.8499 81.0743 83.736 81.7824Z" fill="#57438E"/>
<path d="M86.9701 79.1552C86.0937 79.8668 85.6551 80.2229 84.7787 80.9345C83.8923 80.2264 83.4494 79.8724 82.563 79.1638C83.4398 78.4517 83.878 78.0956 84.7544 77.384C85.6408 78.0926 86.0841 78.4471 86.9701 79.1552Z" fill="#57438E"/>
<path d="M90.2046 76.5292C89.3282 77.2408 88.8896 77.5964 88.0132 78.3085C87.1271 77.5999 86.6839 77.2458 85.7979 76.5378C86.6743 75.8251 87.1125 75.4696 87.9893 74.7575C88.8754 75.4666 89.3186 75.8206 90.2046 76.5292Z" fill="#57438E"/>
<path d="M93.4395 73.902C92.5631 74.6136 92.1245 74.9697 91.2481 75.6813C90.362 74.9732 89.9191 74.6187 89.0327 73.9106C89.9091 73.1985 90.3474 72.8424 91.2241 72.1308C92.1102 72.8394 92.5534 73.1939 93.4395 73.902Z" fill="#57438E"/>
<path d="M98.0708 70.141C96.6354 71.3072 95.9179 71.8895 94.4822 73.0557C93.5961 72.3466 93.1529 71.9925 92.2668 71.2845C93.7022 70.1183 94.4197 69.5355 95.8554 68.3698C96.7415 69.0784 97.1847 69.4329 98.0708 70.141Z" fill="#57438E"/>
<path d="M99.9085 68.6493C99.0321 69.3609 98.5939 69.7165 97.7171 70.4281C96.8314 69.72 96.3881 69.366 95.5017 68.6574C96.3781 67.9453 96.8167 67.5897 97.6931 66.8781C98.5792 67.5867 99.0224 67.9407 99.9085 68.6493Z" fill="#57438E"/>
<path d="M67.8677 100.372C66.9913 101.083 66.5531 101.439 65.6767 102.15C64.7906 101.442 64.3474 101.088 63.4613 100.38C64.3377 99.668 64.7759 99.3119 65.6524 98.6003C66.5384 99.3089 66.9817 99.663 67.8677 100.372Z" fill="#57438E"/>
<path d="M71.1019 97.7451C70.2254 98.4568 69.7872 98.8123 68.9108 99.5239C68.0244 98.8158 67.5815 98.4618 66.6954 97.7537C67.5719 97.0411 68.0101 96.6855 68.8865 95.9739C69.7726 96.6825 70.2158 97.0366 71.1019 97.7451Z" fill="#57438E"/>
<path d="M74.3362 95.1182C73.4598 95.8298 73.0212 96.1859 72.1448 96.8975C71.2587 96.1894 70.8159 95.8354 69.9294 95.1268C70.8062 94.4147 71.2444 94.0591 72.1209 93.347C73.0069 94.0556 73.4502 94.4101 74.3362 95.1182Z" fill="#57438E"/>
<path d="M93.7443 79.358C87.6225 84.3292 81.5011 89.3004 75.3797 94.2711C74.4936 93.5625 74.0504 93.2085 73.1643 92.4999C79.2857 87.5292 85.4075 82.558 91.529 77.5867C92.415 78.2953 92.8586 78.6499 93.7443 79.358Z" fill="#57438E"/>
<path d="M96.9788 76.7318C96.1024 77.4434 95.6638 77.7994 94.7874 78.511C93.9013 77.8025 93.4585 77.4484 92.572 76.7403C93.4485 76.0282 93.887 75.6722 94.7634 74.9605C95.6495 75.6691 96.0927 76.0237 96.9788 76.7318Z" fill="#57438E"/>
<path d="M100.214 74.105C99.3372 74.8171 98.8987 75.1726 98.0222 75.8842C97.1362 75.1762 96.6933 74.8221 95.8069 74.114C96.6833 73.4014 97.1219 73.0459 97.9983 72.3342C98.8844 73.0423 99.3276 73.3969 100.214 74.105Z" fill="#57438E"/>
<path d="M103.447 71.4785C102.571 72.1901 102.132 72.5462 101.256 73.2578C100.37 72.5497 99.9271 72.1957 99.041 71.4871C99.9174 70.775 100.356 70.4194 101.232 69.7078C102.118 70.4159 102.561 70.7704 103.447 71.4785Z" fill="#57438E"/>
<path d="M78.7384 95.5462L93.8395 83.2169L102.469 90.7351L87.373 103.069L78.7384 95.5462Z" fill="#57438E"/>
<path d="M78.8506 34.9441L81.4717 32.8042L81.472 32.9598L78.8959 35.0628L78.8506 34.9441Z" fill="#806CBE"/>
<path d="M76.8409 36.7408L76.7898 36.6267L77.8091 35.7944L77.7602 35.9903L76.8409 36.7408Z" fill="#806CBE"/>
<path d="M80.0491 38.0893L81.4798 36.9211L81.4801 37.0721L80.093 38.205L80.0491 38.0893Z" fill="#806CBE"/>
<path d="M80.093 38.2048L81.4898 41.8705L79.7648 43.2791L74.9519 47.2084L77.3098 37.7897L77.7601 35.9907L77.809 35.7947L78.3505 33.6316L78.8505 34.9442L78.8958 35.0629L80.049 38.0892L80.093 38.2048Z" fill="#8E90FF"/>
<path d="M76.8408 36.7411L77.3098 37.7896L74.9519 47.2088L73.1926 46.2659L74.0319 43.1538L74.0841 42.9598L75.4558 37.8719L75.5098 37.6719L76.1669 35.2346L76.7898 36.627L76.8408 36.7411Z" fill="#87CEFF"/>
<path d="M71.3979 45.3043L73.1929 46.2659L74.9521 47.2088L72.3707 49.3164L67.8604 52.9987L70.8014 46.5033L71.3125 45.374L71.3546 45.281L71.3979 45.3043Z" fill="#8E90FF"/>
<path d="M70.5283 46.014L70.4705 45.91L74.0844 42.96L74.0319 43.1534L71.3976 45.3044L71.3544 45.2812L71.3122 45.3741L70.5283 46.014Z" fill="#806CBE"/>
<path d="M70.5281 46.0139L70.801 46.5033L67.8599 52.9987L67.1738 51.1093L68.0895 48.0048L68.1485 47.8058L69.3174 43.8437L70.4703 45.9098L70.5281 46.0139Z" fill="#87CEFF"/>
<path d="M66.5144 49.2916L66.4719 49.175L68.1491 47.8058L68.0905 48.0048L66.5144 49.2916Z" fill="#806CBE"/>
<path d="M65.3607 46.1147L65.3168 45.9945L75.5103 37.6723L75.4564 37.8723L65.3607 46.1147Z" fill="#806CBE"/>
<path d="M66.5143 49.2914L67.1743 51.1091L67.8604 52.9985L66.2222 54.3364L61.9636 57.8137L63.9154 48.8763L64.3361 46.951L64.3776 46.7611L64.8351 44.6667L65.3168 45.994L65.3608 46.1142L66.4718 49.1748L66.5143 49.2914Z" fill="#8E90FF"/>
<path d="M63.4187 47.7001L63.3698 47.584L64.3776 46.7612L64.3362 46.9511L63.4187 47.7001Z" fill="#806CBE"/>
<path d="M61.9911 44.3221L81.4629 28.4242L81.4632 28.5802L62.04 44.4378L61.9911 44.3221Z" fill="#806CBE"/>
<path d="M81.4543 24.3073L81.4547 24.4634L48.7054 51.2012L48.5797 51.3043L48.5793 51.1487L48.7051 51.0457L81.4543 24.3073Z" fill="#806CBE"/>
<path d="M48.5878 55.2655L48.7138 55.1625L61.241 44.9347L61.1853 45.1362L48.7142 55.3186L48.5881 55.4211L48.5878 55.2655Z" fill="#806CBE"/>
<path d="M58.552 51.6731L58.4923 51.566L59.6712 50.6029L59.6155 50.8049L58.552 51.6731Z" fill="#806CBE"/>
<path d="M48.6046 63.7623L48.7303 63.6593L51.0778 61.7426L51.0068 61.9522L48.7307 63.8103L48.605 63.9133L48.6046 63.7623Z" fill="#806CBE"/>
<path d="M58.5519 51.6732L59.1012 52.6621L61.963 57.8136L56.4223 62.3373L51.9569 65.9828L53.8801 59.2989L55.3141 54.3166L55.3726 54.1131L56.9201 48.7353L58.4923 51.5661L58.5519 51.6732Z" fill="#8E90FF"/>
<path d="M52.4804 57.6249L53.8804 59.2986L51.9571 65.9825L48.7404 68.6093L51.0071 61.9522L51.0782 61.7431L52.4804 57.6249Z" fill="#87CEFF"/>
<path d="M48.5969 59.6455L48.7226 59.5425L55.373 54.1127L55.3144 54.3167L48.723 59.6986L48.5973 59.8011L48.5969 59.6455Z" fill="#806CBE"/>
<path d="M63.4186 47.7001L63.9154 48.8764L61.9636 57.8132L59.1018 52.6617L59.6161 50.8046L59.6718 50.6031L61.1857 45.136L61.2414 44.9344L61.6407 43.492L61.9914 44.3223L62.0404 44.438L63.3697 47.5839L63.4186 47.7001Z" fill="#87CEFF"/>
<path d="M81.4453 19.6691L81.4457 19.8201L48.5707 46.661L48.5703 46.5105L81.4453 19.6691Z" fill="#806CBE"/>
<path d="M48.6964 46.6365L48.7053 51.0456L48.5792 51.1486L48.5796 51.3042L48.7053 51.2017L48.7135 55.1628L48.5878 55.2653V55.4214L48.7139 55.3183L48.7221 59.5426L48.5964 59.6456L48.5967 59.8012L48.7225 59.6986L48.7307 63.6598L48.6046 63.7628L48.605 63.9133L48.7307 63.8108L48.7403 68.6093L81.6275 41.7582L81.6278 41.9628L48.615 68.9163L48.5703 46.739L48.6964 46.6365Z" fill="#806CBE"/>
<mask id="mask2_1_495" style="mask-type:luminance" maskUnits="userSpaceOnUse" x="42" y="0" width="44" height="89">
<path d="M42.7932 0.705758H85.67V88.985H42.7932V0.705758Z" fill="white"/>
</mask>
<g mask="url(#mask2_1_495)">
<g opacity="0.199997">
<path d="M84.8975 0.957032L44.2911 33.852C43.4071 34.5681 42.8607 35.8974 42.8582 37.3378L42.7932 88.9843L44.1179 87.9156C52.0143 71.4126 81.7679 9.20603 85.6696 0.711581C85.4143 0.683298 85.1475 0.754507 84.8975 0.957032Z" fill="#FFF9FF"/>
</g>
</g>
<mask id="mask3_1_495" style="mask-type:luminance" maskUnits="userSpaceOnUse" x="12" y="89" width="22" height="13">
<path d="M12.1873 89.4027H33.8703V101.982H12.1873V89.4027Z" fill="white"/>
</mask>
<g mask="url(#mask3_1_495)">
<g opacity="0.5">
<path d="M33.8708 95.6922C33.8708 99.166 29.0169 101.982 23.0294 101.982C17.0416 101.982 12.188 99.166 12.188 95.6922C12.188 92.2185 17.0416 89.4023 23.0294 89.4023C29.0169 89.4023 33.8708 92.2185 33.8708 95.6922Z" fill="#647DDD"/>
</g>
</g>
<path d="M28.8351 75.1599L19.9937 79.3589V95.0928C19.9937 98.2776 22.9908 100.859 26.6879 100.859C30.3847 100.859 33.3819 98.2776 33.3819 95.0928V79.3589L28.8351 75.1599Z" fill="#FFF9FF"/>
<path d="M33.3819 79.3591C33.3819 82.5444 30.3847 85.1257 26.6876 85.1257C22.9904 85.1257 19.9937 82.5444 19.9937 79.3591C19.9937 76.1742 22.9904 73.5924 26.6876 73.5924C30.3847 73.5924 33.3819 76.1742 33.3819 79.3591Z" fill="#D3BAE7"/>
<path d="M20.9883 82.3843C22.1676 84.0293 24.2783 85.1257 26.6872 85.1257C29.0961 85.1257 31.2069 84.0293 32.3861 82.3843C32.4676 82.05 32.5111 81.704 32.5111 81.349C32.5111 78.5783 29.9036 76.3318 26.6872 76.3318C23.4708 76.3318 20.8633 78.5783 20.8633 81.349C20.8633 81.704 20.9069 82.05 20.9883 82.3843Z" fill="#752939"/>
<path d="M26.6879 73.5924C22.9908 73.5924 19.9937 76.1742 19.9937 79.3591C19.9937 82.5444 22.9908 85.1257 26.6879 85.1257C30.3851 85.1257 33.3822 82.5444 33.3822 79.3591C33.3822 76.1742 30.3851 73.5924 26.6879 73.5924ZM26.6879 74.2555C30.0622 74.2555 32.9133 76.5924 32.9133 79.3591C32.9133 82.1257 30.0622 84.4626 26.6879 84.4626C23.3137 84.4626 20.4626 82.1257 20.4626 79.3591C20.4626 76.5924 23.3137 74.2555 26.6879 74.2555Z" fill="#BCBACE"/>
<path d="M32.3771 52.7901C31.8171 54.4739 31.8092 56.4063 31.8124 58.2669C31.8156 60.3578 31.8192 62.4487 31.8224 64.5396C31.8263 66.9204 31.8267 69.3376 31.3685 71.6285C30.9099 73.9199 29.9238 76.1083 28.4156 77.1674C27.6685 77.6916 26.7296 77.8952 26.0231 77.2684C25.7103 76.9901 25.4706 76.5739 25.2717 76.1335C23.5721 72.3664 25.1442 67.3042 26.366 63.6876C27.7813 59.4987 29.8378 55.7376 32.3771 52.7901Z" fill="#1A685A"/>
<path d="M19.6681 69.9845C19.2484 62.1744 19.5316 54.2164 18.177 46.6214C21.8677 52.9699 23.6663 61.4492 23.0563 69.6219C24.2795 64.2234 25.5152 58.7138 25.4931 53.0446C25.482 50.3351 26.6609 43.9396 26.6609 43.9396C26.6609 43.9396 27.3549 50.0583 27.9931 53.0325C28.4281 55.0623 28.5166 57.2037 28.602 59.3214C28.7266 62.4108 28.8516 65.5007 28.9763 68.5901C30.7934 60.8219 35.6599 50.1154 35.6599 50.1154C35.6599 50.1154 33.8684 70.528 32.9188 75.1977C31.8409 80.4952 28.3349 84.0977 24.3184 82.8446C20.6649 81.7053 19.8988 74.277 19.6681 69.9845Z" fill="#409682"/>
<path d="M22.5199 77.6828C21.7556 74.7136 22.466 71.451 22.9428 68.3636C23.5114 64.6844 23.7367 60.8344 23.1571 57.1581C25.0792 62.897 26.7706 68.7899 28.221 74.7995C28.5964 76.353 28.9567 78.0429 28.6003 79.6056C28.2642 81.0783 26.3814 83.6808 25.1324 83.2455C24.1503 82.9025 22.8549 78.9854 22.5199 77.6828Z" fill="#4EAF9D"/>
<defs>
<filter id="filter0_d_1_495" x="-4" y="21.0228" width="158" height="136.977" filterUnits="userSpaceOnUse" color-interpolation-filters="sRGB">
<feFlood flood-opacity="0" result="BackgroundImageFix"/>
<feColorMatrix in="SourceAlpha" type="matrix" values="0 0 0 0 0 0 0 0 0 0 0 0 0 0 0 0 0 0 127 0" result="hardAlpha"/>
<feOffset dy="4"/>
<feGaussianBlur stdDeviation="2"/>
<feComposite in2="hardAlpha" operator="out"/>
<feColorMatrix type="matrix" values="0 0 0 0 0.489639 0 0 0 0 0.695329 0 0 0 0 0.497758 0 0 0 1 0"/>
<feBlend mode="normal" in2="BackgroundImageFix" result="effect1_dropShadow_1_495"/>
<feBlend mode="normal" in="SourceGraphic" in2="effect1_dropShadow_1_495" result="shape"/>
</filter>
</defs>
</svg>
